<?xml version="1.0" encoding="utf-8"?><!-- Uploaded to: SVG Repo, www.svgrepo.com, Generator: SVG Repo Mixer Tools -->
<svg width="800px" height="800px" viewBox="0 0 24 24" fill="none" xmlns="http://www.w3.org/2000/svg">
<path d="M11 5.00006C10.4477 5.00006 10 5.44777 10 6.00006C10 6.55234 10.4477 7.00006 11 7.00006H18C18.5523 7.00006 19 6.55234 19 6.00006C19 5.44777 18.5523 5.00006 18 5.00006H11Z" fill="white"/>
<path d="M10 10.0001C10 9.44777 10.4477 9.00006 11 9.00006H13C13.5523 9.00006 14 9.44777 14 10.0001C14 10.5523 13.5523 11.0001 13 11.0001H11C10.4477 11.0001 10 10.5523 10 10.0001Z" fill="white"/>
<path d="M11 13.0001C10.4477 13.0001 10 13.4478 10 14.0001C10 14.5523 10.4477 15.0001 11 15.0001H13C13.5523 15.0001 14 14.5523 14 14.0001C14 13.4478 13.5523 13.0001 13 13.0001H11Z" fill="white"/>
<path d="M10 18.0001C10 17.4478 10.4477 17.0001 11 17.0001H13C13.5523 17.0001 14 17.4478 14 18.0001C14 18.5523 13.5523 19.0001 13 19.0001H11C10.4477 19.0001 10 18.5523 10 18.0001Z" fill="white"/>
<path d="M16 9.00006C15.4477 9.00006 15 9.44777 15 10.0001C15 10.5523 15.4477 11.0001 16 11.0001H18C18.5523 11.0001 19 10.5523 19 10.0001C19 9.44777 18.5523 9.00006 18 9.00006H16Z" fill="white"/>
<path d="M15 14.0001C15 13.4478 15.4477 13.0001 16 13.0001H18C18.5523 13.0001 19 13.4478 19 14.0001C19 14.5523 18.5523 15.0001 18 15.0001H16C15.4477 15.0001 15 14.5523 15 14.0001Z" fill="white"/>
<path d="M16 17.0001C15.4477 17.0001 15 17.4478 15 18.0001C15 18.5523 15.4477 19.0001 16 19.0001H18C18.5523 19.0001 19 18.5523 19 18.0001C19 17.4478 18.5523 17.0001 18 17.0001H16Z" fill="white"/>
<path fill-rule="evenodd" clip-rule="evenodd" d="M4.50013 23.0001H19C19.925 23.0001 20.6852 22.7659 21.2891 22.3634C21.8867 21.965 22.2726 21.4409 22.5194 20.9473C22.7643 20.4576 22.8817 19.9799 22.9395 19.6332C22.9743 19.4247 22.9995 19.2118 23 19.0001V4.00012C23 2.34327 21.6569 1.00012 20 1.00012H9C7.34315 1.00012 6 2.34327 6 4.00012L6 13.0001H4C2.34381 13.0001 1 14.3415 1 15.999V19.0001C1 20.8388 1.79875 21.9205 2.7355 22.4826C3.17156 22.7442 3.59956 22.871 3.91326 22.9338C4.1055 22.9722 4.30358 23.0001 4.50013 23.0001ZM21 4.00012C21 3.44784 20.5523 3.00012 20 3.00012H9C8.44771 3.00012 8 3.44784 8 4.00012V19.0001C8 19.8053 7.84683 20.4653 7.59599 21.0001H19C19.575 21.0001 19.9398 20.8592 20.1797 20.6993C20.4258 20.5352 20.6024 20.3092 20.7306 20.0528C20.8917 19.7306 20.9901 19.3559 21 18.9939V4.00012ZM4 15.0001H6L6 19.0001C6 20.1613 5.54875 20.5796 5.2355 20.7676C4.76451 21.0502 4.23209 21.0481 3.7645 20.7676C3.45125 20.5796 3 20.1613 3 19.0001V15.999C3 15.4474 3.44705 15.0001 4 15.0001Z" fill="white"/>
</svg>