<?xml version="1.0" encoding="utf-8"?><!-- Uploaded to: SVG Repo, www.svgrepo.com, Generator: SVG Repo Mixer Tools -->
<svg width="30px" height="30px" viewBox="0 0 24 24" fill="none" xmlns="http://www.w3.org/2000/svg">
<path d="M9 15C9 14.4477 9.44771 14 10 14C10.5523 14 11 14.4477 11 15V18C11 18.5523 10.5523 19 10 19C9.44771 19 9 18.5523 9 18V15Z" fill="white"/>
<path d="M14 14C13.4477 14 13 14.4477 13 15V18C13 18.5523 13.4477 19 14 19C14.5523 19 15 18.5523 15 18V15C15 14.4477 14.5523 14 14 14Z" fill="white"/>
<path fill-rule="evenodd" clip-rule="evenodd" d="M15 2.52495C14.7239 2.04666 14.8877 1.43506 15.366 1.15892C15.8443 0.882779 16.4559 1.04665 16.7321 1.52495L19.3152 5.99904L20.0021 5.99998C20.0464 6.00011 20.0888 6.00154 20.1572 6.00643C20.2385 6.01223 20.348 6.02336 20.4769 6.04484C20.7299 6.087 21.0825 6.17319 21.4472 6.35555C21.8158 6.53986 22.2149 6.83204 22.5195 7.28902C22.8284 7.75227 23 8.32498 23 8.99997C23 9.67495 22.8284 10.2477 22.5196 10.7109C22.2149 11.1679 21.8158 11.4601 21.4472 11.6444C21.2673 11.7344 21.0903 11.8009 20.9268 11.8503L20.1613 20.2716C20.0208 21.8168 18.7252 23 17.1736 23H6.82643C5.27482 23 3.97923 21.8168 3.83875 20.2716L3.07318 11.8503C2.90967 11.8009 2.7327 11.7344 2.55279 11.6444C2.18416 11.4601 1.78511 11.1679 1.48045 10.7109C1.17162 10.2477 1 9.67497 1 8.99998C1 8.325 1.17162 7.75228 1.48045 7.28903C1.78511 6.83205 2.18416 6.53987 2.55279 6.35555C2.9175 6.1732 3.27011 6.087 3.5231 6.04484C3.65197 6.02336 3.76154 6.01223 3.84282 6.00643C3.91179 6.0015 3.95428 6.00005 3.999 5.99998L4.68449 5.99961L7.26794 1.52495C7.54409 1.04666 8.15568 0.882779 8.63397 1.15892C9.11226 1.43506 9.27614 2.04665 9 2.52495L6.99462 5.99837C10.3312 5.99648 13.6679 5.99467 17.0045 5.99685L15 2.52495ZM3.8519 8.01762C3.93485 8.0038 3.99544 8.00051 4.00902 7.99998H19.991C20.0046 8.00051 20.0652 8.0038 20.1481 8.01762C20.2701 8.03796 20.4175 8.07677 20.5528 8.14441C20.6842 8.21009 20.7851 8.29292 20.8555 8.39843C20.9216 8.49768 21 8.67496 21 8.99997C21 9.32498 20.9216 9.50226 20.8554 9.60151C20.7851 9.70703 20.6842 9.78986 20.5528 9.85555C20.4175 9.92319 20.2701 9.962 20.1481 9.98234C20.0651 9.99616 20.0046 9.99945 19.991 9.99998H4.00902C3.99544 9.99945 3.93485 9.99616 3.8519 9.98234C3.72989 9.962 3.5825 9.9232 3.44721 9.85555C3.31584 9.78987 3.21489 9.70705 3.14455 9.60153C3.07838 9.50228 3 9.325 3 8.99998C3 8.67497 3.07838 8.49769 3.14455 8.39843C3.21489 8.29292 3.31584 8.21009 3.44721 8.14441C3.5825 8.07677 3.72989 8.03796 3.8519 8.01762ZM5.83054 20.0905L5.09503 12H18.905L18.1695 20.0905C18.1226 20.6056 17.6908 21 17.1736 21H6.82643C6.30923 21 5.87736 20.6056 5.83054 20.0905Z" fill="white"/>
</svg>